<svg width="20" height="20" viewBox="0 0 20 20" fill="none" xmlns="http://www.w3.org/2000/svg">
<path d="M17.7673 3.11406C17.7539 2.88471 17.6568 2.66826 17.4943 2.5058C17.3319 2.34335 17.1154 2.2462 16.8861 2.23281C13.7923 2.05078 11.0587 2.41562 8.76105 3.3164C6.56261 4.17812 4.86808 5.51406 3.85871 7.17969C2.48214 9.4539 2.47902 12.2148 3.82355 14.8508L2.46183 16.2125C2.37463 16.2997 2.30545 16.4032 2.25825 16.5172C2.21106 16.6311 2.18677 16.7532 2.18677 16.8766C2.18677 16.9999 2.21106 17.122 2.25825 17.2359C2.30545 17.3499 2.37463 17.4534 2.46183 17.5406C2.63795 17.7167 2.87682 17.8157 3.12589 17.8157C3.24922 17.8157 3.37134 17.7914 3.48528 17.7442C3.59922 17.697 3.70275 17.6278 3.78996 17.5406L5.15168 16.1789C6.45949 16.8461 7.79855 17.1828 9.09308 17.1828C10.4083 17.1869 11.6991 16.8273 12.8228 16.1437C14.4884 15.1344 15.8243 13.4391 16.6861 11.2414C17.5845 8.94218 17.9493 6.20781 17.7673 3.11406ZM11.8486 14.5375C10.279 15.4883 8.43761 15.5602 6.55793 14.7656L13.1626 8.16093C13.2498 8.07373 13.319 7.9702 13.3662 7.85626C13.4134 7.74232 13.4377 7.6202 13.4377 7.49687C13.4377 7.37354 13.4134 7.25142 13.3662 7.13748C13.319 7.02354 13.2498 6.92002 13.1626 6.83281C13.0754 6.7456 12.9719 6.67643 12.8579 6.62923C12.744 6.58204 12.6219 6.55775 12.4986 6.55775C12.3752 6.55775 12.2531 6.58204 12.1392 6.62923C12.0252 6.67643 11.9217 6.7456 11.8345 6.83281L5.23449 13.4422C4.4423 11.5672 4.51417 9.72109 5.46886 8.15156C7.10246 5.4539 10.9798 3.95469 15.9376 4.06953C16.0454 9.02578 14.5462 12.9039 11.8486 14.5375Z" fill="black"/>
</svg>
