<svg width="25" height="24" viewBox="0 0 25 24" fill="none" xmlns="http://www.w3.org/2000/svg">
<path d="M18.1309 7.13598C18.0139 7.07698 17.9009 7.01198 17.7899 6.94098C17.4699 6.73298 17.1759 6.48798 16.9149 6.21098C16.2629 5.47798 16.0189 4.73398 15.9289 4.21298H15.9329C15.8579 3.77998 15.8889 3.50098 15.8939 3.50098H12.9209V14.79C12.9209 14.942 12.9209 15.092 12.9149 15.24C12.9149 15.258 12.9129 15.275 12.9119 15.295C12.9119 15.303 12.9119 15.311 12.9099 15.32V15.326C12.8459 16.149 12.3699 16.886 11.6399 17.294C11.2649 17.503 10.8419 17.613 10.4099 17.613C9.02591 17.613 7.90291 16.503 7.90291 15.134C7.90291 13.764 9.02591 12.655 10.4099 12.655C10.6729 12.654 10.9329 12.695 11.1819 12.775L11.1859 9.80198C9.65591 9.60798 8.11391 10.051 6.93191 11.024C6.41891 11.462 5.98891 11.983 5.65891 12.566C5.53291 12.779 5.05991 13.632 5.00291 15.018C4.96691 15.805 5.20691 16.62 5.32191 16.956V16.964C5.39391 17.162 5.67291 17.839 6.12891 18.409C6.49591 18.867 6.92991 19.269 7.41591 19.602V19.595L7.42291 19.602C8.86191 20.563 10.4579 20.5 10.4579 20.5C10.7339 20.489 11.6589 20.5 12.7099 20.011C13.8749 19.468 14.5379 18.661 14.5379 18.661C14.9619 18.178 15.2989 17.628 15.5349 17.034C15.8039 16.34 15.8939 15.507 15.8939 15.174V9.18398C15.9299 9.20598 16.4099 9.51798 16.4099 9.51798C16.4099 9.51798 17.1019 9.95298 18.1809 10.237C18.9559 10.439 19.9989 10.481 19.9989 10.481V7.58298C19.6329 7.62198 18.8909 7.50798 18.1309 7.13598Z" fill="white" fill-opacity="0.5"/>
</svg>
